<?xml version="1.0" encoding="UTF-8"?>
<svg xmlns="http://www.w3.org/2000/svg" version="1.1" viewBox="0 0 960 600">
  <defs>
    <style>
      .cls-1 {
        fill: #637939;
        font-size: 96.3px;
      }

      .cls-1, .cls-2, .cls-3, .cls-4, .cls-5, .cls-6, .cls-7, .cls-8, .cls-9, .cls-10, .cls-11, .cls-12, .cls-13, .cls-14, .cls-15 {
        font-family: Impact, Impact;
        isolation: isolate;
      }

      .cls-2 {
        font-size: 66px;
      }

      .cls-2, .cls-14 {
        fill: #cedb9c;
      }

      .cls-3 {
        fill: #a55194;
        font-size: 53.5px;
      }

      .cls-4 {
        font-size: 70.6px;
      }

      .cls-4, .cls-12 {
        fill: #393b79;
      }

      .cls-5 {
        font-size: 53px;
      }

      .cls-5, .cls-11 {
        fill: #5254a3;
      }

      .cls-6 {
        fill: #8ca252;
        font-size: 37.4px;
      }

      .cls-7 {
        font-size: 50.3px;
      }

      .cls-7, .cls-10 {
        fill: #ce6dbd;
      }

      .cls-8 {
        fill: #b5cf6b;
        font-size: 86.9px;
      }

      .cls-9 {
        fill: #d6616b;
        font-size: 73.3px;
      }

      .cls-10 {
        font-size: 50.3px;
      }

      .cls-11 {
        font-size: 65.1px;
      }

      .cls-12 {
        font-size: 73.1px;
      }

      .cls-13 {
        fill: #9c9ede;
        font-size: 90.8px;
      }

      .cls-14 {
        font-size: 64.4px;
      }

      .cls-15 {
        fill: #6b6ecf;
        font-size: 104.7px;
      }
    </style>
  </defs>
  <!-- Generator: Adobe Illustrator 28.6.0, SVG Export Plug-In . SVG Version: 1.2.0 Build 709)  -->
  <g>
    <g id="Layer_1">
      <g>
        <text class="cls-14" transform="translate(104.1 498.6) rotate(31.2) scale(1 1) skewX(2.4)"><tspan x="0" y="0">data</tspan></text>
        <text class="cls-15" transform="translate(273.3 347.1) rotate(15.7) scale(1 1) skewX(1.4)"><tspan x="0" y="0">behavior</tspan></text>
        <text class="cls-13" transform="translate(180.2 487.9) scale(1 1)"><tspan x="0" y="0">emotions</tspan></text>
        <text class="cls-1" transform="translate(413.2 287.1) rotate(15.7) scale(1 1) skewX(1.4)"><tspan x="0" y="0">social</tspan></text>
        <text class="cls-8" transform="translate(55.3 325.4) rotate(-15.7) scale(1 1) skewX(-1.4)"><tspan x="0" y="0">emotion regulation</tspan></text>
        <text class="cls-9" transform="translate(704.6 118.6) rotate(15.7) scale(1 1) skewX(1.4)"><tspan x="0" y="0">teens</tspan></text>
        <text class="cls-6" transform="translate(97.7 392) rotate(31.2) scale(1 1) skewX(2.4)"><tspan x="0" y="0">brain</tspan></text>
        <text class="cls-4" transform="translate(55.3 244.2) rotate(-15.7) scale(1 1) skewX(-1.4)"><tspan x="0" y="0">social decision-making</tspan></text>
        <text class="cls-2" transform="translate(596.4 229.9) rotate(15.7) scale(1 1) skewX(1.4)"><tspan x="0" y="0">adolescents</tspan></text>
        <text class="cls-5" transform="translate(751.5 179.2) rotate(31.2) scale(1 1) skewX(2.4)"><tspan x="0" y="0">youths</tspan></text>
        <text class="cls-3" transform="translate(669.3 427) rotate(-11.8) scale(1 1) skewX(-1.1)"><tspan x="0" y="0">model</tspan></text>
        <text class="cls-12" transform="translate(654.5 536.1) rotate(-21) scale(1 1) skewX(-1.8)"><tspan x="0" y="0">ecological</tspan></text>
        <text class="cls-11" transform="translate(236.2 550.1) scale(1 1)"><tspan x="0" y="0">computational</tspan></text>
        <text class="cls-7" transform="translate(120.2 352.2) rotate(15.7) scale(1 1) skewX(1.4)"><tspan x="0" y="0">risk-taking</tspan></text>
        <text class="cls-10" transform="translate(683 360.3) rotate(-16.5) scale(1 1) skewX(-1.5)"><tspan x="0" y="0">fMRI</tspan></text>
      </g>
    </g>
  </g>
</svg>